<svg xmlns="http://www.w3.org/2000/svg" viewBox="15818 339.9 137.538 128">
  <defs>
    <style>
      .cls-1 {
        fill: #ffa64d;
      }

      .cls-2 {
        fill: #ee8f46;
      }

      .cls-3 {
        fill: #eebf00;
      }

      .cls-4 {
        fill: none;
      }
    </style>
  </defs>
  <g id="coins" transform="translate(15818 322.147)">
    <g id="Group_17" data-name="Group 17" transform="translate(2.015 60.788)">
      <path id="Path_17" data-name="Path 17" class="cls-1" d="M71.313,384.43H32.364v13.547H80.417A45.917,45.917,0,0,1,71.313,384.43Z" transform="translate(-25.685 -328.965)"/>
      <path id="Path_18" data-name="Path 18" class="cls-1" d="M67.727,435.054l-.191-.2H14.752V448.8h85.2v-.006A45.712,45.712,0,0,1,67.727,435.054Z" transform="translate(-12.804 -365.847)"/>
      <path id="Path_19" data-name="Path 19" class="cls-1" d="M58.389,291.228a46.073,46.073,0,0,1,.907-9.114H19.932v13.547H58.6C58.463,294.2,58.389,292.724,58.389,291.228Z" transform="translate(-16.592 -254.134)"/>
      <path id="Path_20" data-name="Path 20" class="cls-1" d="M53.043,346.286a45.557,45.557,0,0,1-3.515-13.547c-.006-.065-.011-.131-.017-.2H7.5v13.938H53.129C53.1,346.416,53.071,346.351,53.043,346.286Z" transform="translate(-7.5 -291.016)"/>
      <path id="Path_21" data-name="Path 21" class="cls-1" d="M7.5,230.228v13.938H50.2c.013-.065.026-.131.039-.2a45.562,45.562,0,0,1,5.263-13.743H7.5Z" transform="translate(-7.5 -216.186)"/>
      <path id="Path_22" data-name="Path 22" class="cls-1" d="M90.166,177.956H37.544v13.938h40A46.082,46.082,0,0,1,90.166,177.956Z" transform="translate(-29.473 -177.956)"/>
    </g>
    <g id="Group_18" data-name="Group 18" transform="translate(36.424 60.788)">
      <path id="Path_23" data-name="Path 23" class="cls-2" d="M156.105,285.391l-.191-.2a45.932,45.932,0,0,1-9.1-13.547c-.028-.065-.057-.13-.086-.2a45.556,45.556,0,0,1-3.515-13.547c-.006-.065-.011-.131-.017-.2-.14-1.459-.214-2.937-.214-4.433a46.072,46.072,0,0,1,.907-9.114c.013-.065.026-.131.039-.2a45.562,45.562,0,0,1,5.263-13.743h-8.36a52.862,52.862,0,0,0-4.456,13.938,53.571,53.571,0,0,0-.78,9.114c0,1.493.065,2.971.185,4.433a52.932,52.932,0,0,0,10.44,27.485,53.515,53.515,0,0,0,15.553,13.938h26.56v-.006A45.711,45.711,0,0,1,156.105,285.391Z" transform="translate(-135.591 -216.184)"/>
      <path id="Path_24" data-name="Path 24" class="cls-2" d="M176.268,177.956h-11.23a53.369,53.369,0,0,0-9.767,13.938h8.371A46.091,46.091,0,0,1,176.268,177.956Z" transform="translate(-149.984 -177.956)"/>
    </g>
    <path id="SVGCleanerId_0" class="cls-3" d="M208.946,145.337A45.856,45.856,0,1,0,254.8,191.193,45.856,45.856,0,0,0,208.946,145.337Zm0,85.148a39.292,39.292,0,1,1,39.292-39.292A39.292,39.292,0,0,1,208.946,230.485Z" transform="translate(-119.279 -93.311)"/>
    <path id="Path_25" data-name="Path 25" class="cls-4" d="M226.819,169.772a39.292,39.292,0,1,0,39.292,39.292A39.292,39.292,0,0,0,226.819,169.772Zm0,64.288a25,25,0,1,1,25-25A25,25,0,0,1,226.819,234.06Z" transform="translate(-137.152 -111.182)"/>
    <circle id="Ellipse_2" data-name="Ellipse 2" class="cls-1" cx="24.996" cy="24.996" r="24.996" transform="translate(64.672 72.888)"/>
    <g id="Group_19" data-name="Group 19" transform="translate(43.811 52.026)">
      <path id="SVGCleanerId_0_1_" class="cls-1" d="M208.946,145.337A45.856,45.856,0,1,0,254.8,191.193,45.856,45.856,0,0,0,208.946,145.337Zm0,85.148a39.292,39.292,0,1,1,39.292-39.292A39.292,39.292,0,0,1,208.946,230.485Z" transform="translate(-163.09 -145.337)"/>
    </g>
    <path id="Path_26" data-name="Path 26" d="M260.257,215.492a27.01,27.01,0,1,0,27.01,27.01A27.041,27.041,0,0,0,260.257,215.492Zm0,49.991A22.981,22.981,0,1,1,283.238,242.5,23.007,23.007,0,0,1,260.257,265.483Z" transform="translate(-170.59 -144.62)"/>
    <path id="Path_27" data-name="Path 27" d="M311.564,266.309a10.187,10.187,0,0,0-2.86-1.589q-1.652-.621-3.667-1.167v-7c.157.033.313.065.469.105a15.559,15.559,0,0,1,2.284.775,12.328,12.328,0,0,1,1.788.934,6.8,6.8,0,0,1,1.013.755l2.423-4.45a20.443,20.443,0,0,0-4.37-2.2,14.8,14.8,0,0,0-3.607-.832v-4.458h-4.029v4.514a12.677,12.677,0,0,0-1.859.419,9.992,9.992,0,0,0-3.278,1.688,7.707,7.707,0,0,0-2.2,2.781,8.761,8.761,0,0,0-.795,3.814,7.143,7.143,0,0,0,.5,2.8,5.8,5.8,0,0,0,1.49,2.066,9.241,9.241,0,0,0,2.483,1.549,25.657,25.657,0,0,0,3.516,1.212l.15.043v6.992c-.183-.038-.366-.076-.548-.122a17.061,17.061,0,0,1-2.821-.974,19.518,19.518,0,0,1-2.2-1.152,7.621,7.621,0,0,1-1.291-.934l-2.423,4.728a19.361,19.361,0,0,0,5.562,2.7,21.513,21.513,0,0,0,3.726.8v4.569h4.029v-4.479a16.265,16.265,0,0,0,2.475-.389,10.01,10.01,0,0,0,3.337-1.45,7.177,7.177,0,0,0,2.3-2.6,8.165,8.165,0,0,0,.854-3.873,7.587,7.587,0,0,0-.636-3.278A6.573,6.573,0,0,0,311.564,266.309Zm-11.422-4.331a3.6,3.6,0,0,1-1.212-1.013,2.409,2.409,0,0,1-.417-1.45,2.761,2.761,0,0,1,1.112-2.344,3.832,3.832,0,0,1,1.382-.621v5.831A7.8,7.8,0,0,1,300.142,261.978Zm4.895,13.264v-5.966a11.559,11.559,0,0,1,1.144.489,4.39,4.39,0,0,1,1.47,1.112,2.382,2.382,0,0,1,.516,1.549Q308.167,274.837,305.036,275.242Z" transform="translate(-213.355 -167.791)"/>
    <rect id="Rectangle_49" data-name="Rectangle 49" width="19.629" height="4.029" transform="translate(87.671 37.388) rotate(-90.08)"/>
    <rect id="Rectangle_50" data-name="Rectangle 50" width="4.029" height="19.629" transform="translate(113.375 43.433) rotate(-155.254)"/>
    <rect id="Rectangle_51" data-name="Rectangle 51" width="19.628" height="4.029" transform="matrix(-0.421, -0.907, 0.907, -0.421, 66.009, 43.496)"/>
    <path id="Path_28" data-name="Path 28" d="M137.538,185.707A47.848,47.848,0,0,0,62.091,146.6H8.071V160.64H0v17.968H3.34v9.517H0v17.968H6.679v9.518H1.948v17.968H89.667l.169,0,1.341,0v-.02A47.927,47.927,0,0,0,137.538,185.707Zm-95.378-5.9q-.051.413-.095.827-.02.191-.039.381-.038.388-.069.778c-.008.1-.018.208-.026.312q-.039.519-.066,1.039c-.006.112-.01.224-.016.336q-.019.4-.03.8c0,.113-.007.226-.009.34-.008.365-.014.73-.014,1.095q0,1.216.061,2.418H40.718v-9.517h1.6q-.071.477-.132.956C42.179,179.644,42.171,179.724,42.161,179.8ZM18.772,192.155v9.909h-7.73v-9.909ZM11.348,215.61v-9.518h7.73v9.518Zm19.183-23.456v9.909H22.8v-9.909ZM23.107,215.61v-9.518h7.73v9.518Zm11.759,0v-9.518H42.6v9.518Zm11.759,0v-8.945a47.656,47.656,0,0,0,5.659,8.945Zm-4.871-13.547H34.561v-9.909h7.2ZM28.959,188.125v-9.517h7.73v9.517h-7.73ZM15.789,174.579V164.67h7.73v9.909Zm19.489-9.909v9.909h-7.73V164.67Zm4.029,9.909V164.67h7.351a47.433,47.433,0,0,0-3.559,9.909Zm9.637-14.042h-4.67v-9.909h5.782v8.2C49.675,159.392,49.3,159.958,48.943,160.537Zm-8.7,0h-7.73v-9.909h7.73v9.909Zm-11.759,0h-7.73v-9.909h7.73ZM11.759,174.579H4.029V164.67h7.73Zm13.171,4.029v9.517H17.2v-9.517ZM19.913,219.64v9.909h-7.73V219.64Zm4.029,0h7.73v9.909h-7.73Zm11.759,0h7.73v9.909H35.7Zm11.759,0h7.73v9.909H47.46Zm11.759,3.01a47.716,47.716,0,0,0,7.73,5.213v1.686h-7.73Zm-5.135-68.963v-3.058H57.09Q55.515,152.089,54.085,153.686ZM12.1,150.628h4.626v9.909H12.1Zm-4.731,27.98h5.8v9.517h-5.8Zm-3.34,23.456v-9.909H7.013v9.909H4.029ZM5.978,219.64H8.154v9.909H5.978Zm83.736,9.908-.529-.006q-1.084-.012-2.158-.075l-.068,0q-.489-.03-.975-.07l-.21-.019q-.409-.036-.817-.079l-.431-.049c-.194-.023-.388-.045-.581-.07q-.376-.049-.749-.1l-.251-.037a43.947,43.947,0,0,1-36.61-36.649l0-.027q-.075-.494-.139-.991c-.006-.048-.013-.1-.019-.144q-.063-.5-.115-1l-.013-.141c-.01-.1-.018-.208-.028-.311-.027-.288-.052-.577-.073-.865,0-.047-.006-.093-.009-.14-.021-.309-.041-.618-.056-.926,0-.078-.006-.157-.009-.235-.012-.274-.023-.549-.03-.822q-.013-.535-.014-1.073,0-.557.014-1.11c.005-.2.015-.4.022-.6.006-.168.011-.336.019-.5.012-.23.028-.46.043-.69.009-.138.016-.276.026-.414.016-.215.037-.43.056-.644.014-.154.026-.309.041-.463.017-.172.038-.344.058-.517.023-.2.043-.4.069-.6.014-.109.03-.217.045-.325.036-.265.071-.531.111-.794,0-.028.009-.056.014-.085a43.843,43.843,0,1,1,43.37,50.583Z" transform="translate(0 -87.825)"/>
    <path id="Path_29" data-name="Path 29" d="M262.626,202.514A41.359,41.359,0,0,0,222.4,162.285q-.531-.014-1.065-.013t-1.065.013a41.359,41.359,0,0,0-40.229,40.229q-.014.531-.013,1.065t.013,1.065a41.359,41.359,0,0,0,40.229,40.229q.531.014,1.065.013t1.065-.013a41.359,41.359,0,0,0,40.229-40.229q.014-.531.013-1.065T262.626,202.514Zm-41.293,38.342a37.277,37.277,0,1,1,37.277-37.277A37.32,37.32,0,0,1,221.333,240.856Z" transform="translate(-131.666 -105.697)"/>
  </g>
</svg>
