<svg xmlns="http://www.w3.org/2000/svg" viewBox="4562.175 366.282 20.649 23.718">
  <defs>
    <style>
      .cls-1 {
        fill: #fff;
      }
    </style>
  </defs>
  <g id="Untitled-4" transform="translate(4213.525 40.153)">
    <path id="Path_1204" data-name="Path 1204" class="cls-1" d="M441.035,423.028a4.336,4.336,0,0,0,4.332-4.331c0-.027-.007-.052-.007-.079s.007-.052.007-.079a4.332,4.332,0,1,0-8.664,0c0,.027.008.052.008.079s-.008.052-.008.079A4.336,4.336,0,0,0,441.035,423.028Zm0-6.849a2.439,2.439,0,1,1-2.51,2.439A2.517,2.517,0,0,1,441.035,416.18Z" transform="translate(-82.061 -82.084)"/>
    <path id="Path_1205" data-name="Path 1205" class="cls-1" d="M351.764,343.838l6.612,5.784a.907.907,0,0,0,1.195,0l6.7-5.866a10.324,10.324,0,1,0-14.6,0A1.126,1.126,0,0,0,351.764,343.838Zm7.21-15.894a8.521,8.521,0,0,1,8.51,8.512,8.425,8.425,0,0,1-2.447,5.975l-6.063,5.3-6.058-5.3a8.513,8.513,0,0,1,6.058-14.491Z"/>
  </g>
</svg>
